<svg xmlns="http://www.w3.org/2000/svg" width="960" height="540" viewBox="0 0 960 540" role="img" aria-labelledby="t d"><title id="t">Membrane transport</title><desc id="d">Simple diffusion, facilitated diffusion, and active transport across a phospholipid membrane.</desc><rect width="960" height="540" fill="#f7f9fc"/><text x="480" y="46" text-anchor="middle" font-family="sans-serif" font-size="28" font-weight="700">Membrane transport: gradient and energy</text><text x="26" y="120" font-family="sans-serif" font-size="18">Extracellular fluid</text><text x="26" y="488" font-family="sans-serif" font-size="18">Cytosol</text><g stroke="#315a7d" fill="#d9ecff" stroke-width="3"><g id="p"><circle cx="70" cy="225" r="14"/><line x1="70" y1="239" x2="70" y2="301"/><circle cx="70" cy="315" r="14"/></g><use href="#p" x="55"/><use href="#p" x="110"/><use href="#p" x="165"/><use href="#p" x="220"/><use href="#p" x="275"/><use href="#p" x="330"/><use href="#p" x="385"/><use href="#p" x="440"/><use href="#p" x="495"/><use href="#p" x="550"/><use href="#p" x="605"/><use href="#p" x="660"/><use href="#p" x="715"/><use href="#p" x="770"/><use href="#p" x="825"/></g><g font-family="sans-serif" font-size="18" text-anchor="middle"><text x="205" y="105">Simple diffusion</text><text x="480" y="105">Facilitated diffusion</text><text x="760" y="105">Active transport</text></g><g stroke="#1e7d45" stroke-width="6" fill="none" marker-end="url(#a)"><path d="M205 135 V205"/><path d="M480 135 V205"/><path d="M760 385 V335"/></g><defs><marker id="a" markerWidth="10" markerHeight="10" refX="7" refY="3" orient="auto"><path d="M0 0 L0 6 L9 3 z" fill="#1e7d45"/></marker></defs><rect x="430" y="200" width="100" height="140" rx="32" fill="#ffe7a8" stroke="#9a6b00" stroke-width="4"/><rect x="710" y="200" width="100" height="140" rx="20" fill="#ffd1d1" stroke="#9d3030" stroke-width="4"/><text x="480" y="370" text-anchor="middle" font-family="sans-serif" font-size="16">protein; high → low</text><text x="760" y="370" text-anchor="middle" font-family="sans-serif" font-size="16">energy; low → high</text><text x="205" y="370" text-anchor="middle" font-family="sans-serif" font-size="16">no protein; high → low</text></svg>